<?xml version="1.0" encoding="utf-8"?>
<!-- Generator: Adobe Illustrator 24.1.1, SVG Export Plug-In . SVG Version: 6.00 Build 0)  -->
<svg version="1.1" xmlns="http://www.w3.org/2000/svg" xmlns:xlink="http://www.w3.org/1999/xlink" x="0px" y="0px"
	 viewBox="0 0 1280 1024" style="enable-background:new 0 0 1280 1024;" xml:space="preserve">
<style type="text/css">
	.st0{fill:#FFFFFF;}
</style>
<g id="Layer_1">
</g>
<g id="Layer_2">
	<g>
		<path class="st0" d="M415.89,64.43c0,0,98.74,70.4,243.49,80.69c113.62,8.08,141.17-30.52,229.12-80.69l190.36,121.42
			l-66.71,97.99l106.33,116.75c0,0-185.55-18.76-383.6,179.29l-80.9-32.82L415.89,64.43z"/>
		<path class="st0" d="M887.33,73.95c0,0-36.34,61.14-195.22,74.17c-65.74,5.39-188.92-38.02-276.88-88.19L228.47,185.81
			l66.71,97.99L188.86,400.55c0,0,185.55-18.76,383.6,179.29l81.5-32.79L887.33,73.95z"/>
	</g>
	<path d="M295.2,283.82l-44.79-92.85l88.77,61.08l119.72,63.53l45.61,15.47l51.31,11.4c0,0,10.59-0.81,23.62,0
		c0,0-39.09,28.51-132.75-4.89L295.2,283.82z"/>
	<path d="M1012.16,283.83l44.79-92.85l-88.77,61.08L848.46,315.6l-45.61,15.47l-51.31,11.4c0,0-10.59-0.81-23.62,0
		c0,0,39.09,28.51,132.75-4.89L1012.16,283.83z"/>
	<polygon points="515,460.62 605.3,479.38 574.03,497.75 	"/>
	<polygon points="788.5,460.62 698.2,479.38 729.48,497.75 	"/>
	<path class="st0" d="M188.86,441.46c0,0,43.78,8.86,82.35,75.05s47.95,91.21,47.95,91.21L425.48,902.2l-75.57-343.47
		C349.91,558.73,326.98,465.96,188.86,441.46z"/>
	<path class="st0" d="M1118.47,441.46c0,0-43.78,8.86-82.35,75.05s-47.95,91.21-47.95,91.21L881.84,902.2l75.57-343.47
		C957.41,558.73,980.35,465.96,1118.47,441.46z"/>
	<path class="st0" d="M400.34,510.78l62.54,322.1c0,0,10.42-234.54,52.12-224.12C515,608.77,479.56,544.14,400.34,510.78z"/>
	<path class="st0" d="M908.07,510.78l-62.54,322.1c0,0-10.42-234.54-52.12-224.12C793.41,608.77,828.85,544.14,908.07,510.78z"/>
</g>
</svg>
